# xmcd
#
# Track frame offsets:
#	150
#	12413
#	33885
#	47670
#	64320
#	76897
#	101478
#	124259
#	138322
#	154399
#	172961
#	209842
#
# Disc length: 2929 seconds
# Revision: 0
# Processed by: cddbd v1.5.2PL0 Copyright (c) Steve Scherf et al.
# Submitted via: dBpowerAMP V12.0
#
DISCID=a40b6f0c
DTITLE=Ali Holder and the RainGoggs - Red to Black
DYEAR=2011
DGENRE=Blues
TTITLE0=Stuck in Red
TTITLE1=By My Man
TTITLE2=Shake Your Bum
TTITLE3=Ain't the Madonna, Ain't Your Whore
TTITLE4=But You're Mine
TTITLE5=Does she do you right
TTITLE6=Daddy may I
TTITLE7=What have you Done
TTITLE8=Was it Necessary
TTITLE9=black
TTITLE10=Johnny and June
TTITLE11=DATA
EXTD=
EXTT0=
EXTT1=
EXTT2=
EXTT3=
EXTT4=
EXTT5=
EXTT6=
EXTT7=
EXTT8=
EXTT9=
EXTT10=
EXTT11=
PLAYORDER=
